<?xml version="1.0" standalone="no"?>
<!DOCTYPE svg PUBLIC "-//W3C//DTD SVG 20010904//EN"
 "http://www.w3.org/TR/2001/REC-SVG-20010904/DTD/svg10.dtd">
<svg version="1.0" xmlns="http://www.w3.org/2000/svg"
 width="772.000000pt" height="772.000000pt" viewBox="0 0 772.000000 772.000000"
 preserveAspectRatio="xMidYMid meet">
<metadata>
Created by potrace 1.14, written by Peter Selinger 2001-2017
</metadata>
<g transform="translate(0.000000,772.000000) scale(0.100000,-0.100000)"
fill="#000000" stroke="none">
<path d="M1748 7697 c-7 -7 -44 -32 -82 -57 -38 -24 -75 -50 -82 -57 -7 -8
-17 -14 -21 -15 -8 -1 -84 -49 -93 -58 -3 -3 -43 -30 -90 -60 -47 -30 -86 -58
-88 -62 -2 -5 -10 -8 -17 -8 -7 0 -15 -3 -17 -7 -1 -5 -37 -30 -78 -57 -41
-27 -77 -53 -78 -58 -2 -4 -7 -6 -11 -3 -5 2 -18 -7 -31 -20 -21 -23 -23 -34
-25 -147 0 -68 3 -131 7 -140 4 -9 5 -19 1 -21 -5 -3 -8 -73 -7 -155 l0 -150
-38 -24 c-20 -12 -38 -26 -38 -30 0 -5 -5 -8 -12 -8 -6 0 -26 -11 -44 -25 -18
-14 -37 -25 -43 -25 -6 0 -11 -4 -11 -8 0 -4 -22 -21 -50 -37 -28 -16 -50 -33
-50 -38 0 -4 -4 -5 -10 -2 -5 3 -10 2 -10 -3 0 -5 -12 -15 -27 -23 -16 -8 -33
-18 -40 -24 -7 -5 -19 -16 -28 -23 -8 -7 -15 -10 -15 -7 0 3 -10 -3 -22 -15
-12 -11 -27 -20 -34 -20 -7 0 -14 -3 -16 -7 -1 -5 -23 -21 -48 -38 -25 -16
-48 -34 -52 -39 -3 -5 -6 -175 -6 -378 0 -334 2 -370 16 -376 10 -3 26 -14 36
-24 11 -10 26 -18 33 -18 7 0 13 -4 13 -10 0 -5 7 -10 15 -10 8 0 15 -5 15
-11 0 -5 4 -7 10 -4 6 3 10 -1 10 -10 0 -9 4 -14 9 -10 5 3 15 0 23 -7 24 -22
77 -58 86 -58 5 0 17 -9 27 -20 10 -11 24 -20 31 -20 7 0 14 -3 16 -7 5 -12
66 -53 78 -53 5 0 10 -4 10 -10 0 -5 7 -10 15 -10 8 0 15 -3 15 -8 0 -4 16
-16 36 -27 19 -10 48 -29 62 -42 15 -13 30 -23 33 -23 4 0 6 -43 5 -95 -1 -52
2 -95 7 -95 4 0 5 -5 1 -11 -4 -7 -7 -96 -8 -198 l-1 -186 35 -33 c19 -19 49
-41 65 -49 17 -8 45 -26 63 -40 17 -13 32 -21 32 -17 0 4 8 -3 19 -14 10 -12
22 -22 25 -22 4 0 28 -15 54 -32 26 -18 50 -32 55 -30 4 1 7 -3 7 -8 0 -6 7
-10 16 -10 8 0 13 -4 10 -9 -3 -5 8 -14 24 -21 17 -7 30 -17 30 -23 0 -6 3 -8
6 -5 3 4 14 -2 25 -13 11 -11 23 -18 28 -15 4 3 14 -4 21 -15 8 -10 18 -19 22
-19 5 0 48 -27 98 -60 71 -48 94 -59 115 -54 14 3 25 10 25 15 0 5 5 9 11 9 6
0 17 6 24 13 33 28 45 37 45 32 0 -6 13 4 45 33 8 7 15 11 15 7 0 -4 7 0 15 7
34 31 43 36 49 31 3 -4 6 -1 6 5 0 7 6 12 14 12 8 0 17 7 20 16 3 8 10 12 16
9 5 -3 10 -2 10 4 0 5 9 13 20 16 11 3 26 12 32 18 7 7 51 37 98 67 47 30 87
57 90 61 20 24 89 31 74 8 -3 -5 0 -9 7 -9 6 0 58 -32 115 -70 57 -38 108 -70
113 -70 5 0 11 -4 13 -8 4 -10 157 -112 168 -112 17 0 20 -39 20 -253 l0 -222
-45 -28 c-25 -16 -45 -34 -45 -40 0 -5 -3 -7 -6 -4 -4 3 -39 -16 -79 -43 -39
-28 -76 -50 -83 -50 -6 0 -15 -6 -19 -13 -4 -8 -29 -26 -55 -41 -27 -16 -48
-32 -48 -37 0 -5 -5 -9 -11 -9 -6 0 -22 -9 -35 -19 -13 -11 -30 -18 -37 -17
-29 6 -67 26 -67 36 0 5 -7 10 -15 10 -8 0 -15 3 -15 8 0 4 -23 20 -50 37 -28
16 -50 33 -50 38 0 4 -5 5 -10 2 -6 -3 -13 1 -16 9 -3 9 -12 16 -20 16 -8 0
-14 5 -14 11 0 5 -4 8 -8 5 -5 -3 -20 6 -34 19 -14 13 -28 22 -30 19 -3 -2
-13 5 -23 16 -10 11 -24 20 -32 20 -7 0 -13 5 -13 12 0 6 -3 9 -6 5 -6 -6 -17
1 -55 36 -10 9 -24 17 -29 17 -6 0 -22 11 -35 25 -14 13 -25 22 -25 18 0 -3
-11 2 -24 10 -22 15 -66 13 -66 -3 0 -4 -16 -15 -35 -26 -19 -10 -35 -22 -35
-26 0 -5 -3 -7 -7 -6 -5 2 -24 -9 -44 -25 -20 -15 -39 -27 -43 -27 -4 0 -14
-6 -21 -12 -35 -31 -45 -38 -45 -31 0 4 -4 3 -8 -3 -4 -6 -36 -29 -72 -52 -36
-23 -70 -45 -75 -50 -6 -5 -24 -17 -40 -28 -17 -10 -33 -23 -37 -29 -5 -6 -8
-6 -8 0 0 6 -3 6 -8 -1 -4 -6 -36 -29 -72 -52 -36 -23 -76 -50 -89 -59 -56
-40 -55 -30 -55 -340 -1 -285 -1 -288 -23 -311 -13 -12 -26 -23 -30 -23 -18
-4 -163 -102 -163 -111 0 -5 -4 -7 -8 -4 -5 3 -18 -4 -30 -14 -12 -11 -25 -20
-30 -20 -8 0 -24 -11 -70 -50 -6 -6 -12 -8 -12 -5 0 4 -7 0 -15 -7 -33 -29
-45 -38 -45 -33 0 4 -7 0 -15 -7 -34 -31 -43 -36 -49 -31 -3 4 -6 1 -6 -5 0
-7 -6 -12 -14 -12 -8 0 -17 -7 -20 -16 -3 -8 -10 -12 -16 -9 -5 3 -10 2 -10
-4 0 -5 -9 -12 -19 -16 -18 -5 -19 -22 -19 -380 0 -309 2 -376 14 -386 8 -6
14 -8 14 -4 0 5 8 -2 19 -13 10 -12 25 -22 34 -22 9 0 20 -6 24 -13 9 -14 53
-44 67 -45 5 0 12 -5 15 -10 9 -13 231 -162 242 -162 5 0 12 -7 15 -15 4 -8
11 -15 18 -15 7 0 21 -7 31 -15 11 -8 38 -28 60 -43 l40 -29 1 -298 c1 -275 3
-300 19 -310 10 -5 31 -21 46 -33 16 -13 29 -20 29 -15 0 4 4 3 8 -2 9 -14
151 -109 175 -118 9 -3 17 -11 17 -17 0 -6 4 -8 10 -5 5 3 10 1 10 -4 0 -6 7
-11 15 -11 8 0 15 -4 15 -8 0 -5 16 -17 35 -28 19 -10 35 -23 35 -28 0 -5 3
-7 6 -3 3 3 15 -3 26 -13 12 -10 36 -26 54 -35 19 -9 34 -21 34 -27 0 -6 3 -9
6 -5 3 3 15 -3 26 -13 12 -10 36 -26 54 -35 19 -9 34 -20 34 -26 0 -6 5 -7 10
-4 6 3 10 2 10 -2 0 -5 14 -17 31 -27 26 -15 33 -16 40 -5 5 8 9 10 9 4 0 -6
3 -6 8 0 8 12 65 49 72 48 3 -1 9 5 13 13 5 8 12 12 17 9 4 -3 10 2 14 10 3 8
12 15 20 15 8 0 19 6 23 14 4 8 15 16 23 18 8 2 20 10 27 18 7 8 13 11 13 6 0
-5 8 1 19 12 10 12 20 19 23 17 3 -3 13 4 23 15 10 11 24 20 31 20 7 0 14 3
16 8 4 10 111 80 120 78 4 0 14 8 22 19 9 11 16 17 16 13 0 -4 12 4 26 17 15
14 30 22 34 20 5 -3 10 -1 12 5 2 6 37 -12 78 -40 41 -28 83 -56 94 -63 10 -6
24 -18 32 -25 7 -6 16 -12 19 -12 4 0 35 -19 69 -43 34 -24 69 -46 79 -50 9
-3 17 -10 17 -15 0 -5 14 -15 30 -22 17 -7 30 -15 30 -19 0 -3 12 -12 28 -18
15 -7 51 -31 80 -53 28 -22 52 -36 52 -32 0 5 42 35 93 67 50 33 97 63 102 67
34 28 127 88 135 88 6 0 10 5 10 11 0 5 4 8 9 5 5 -3 12 1 15 10 4 9 9 14 12
11 4 -3 12 -1 20 6 26 23 39 33 79 57 22 13 43 29 47 34 5 7 8 7 8 1 0 -5 5
-2 11 7 5 10 17 18 24 18 8 0 15 4 15 9 0 5 13 14 30 21 17 7 30 17 30 22 0 5
5 6 10 3 6 -3 10 -1 10 5 0 6 8 14 18 17 48 19 48 20 47 326 0 159 3 291 7
293 5 3 6 10 3 15 -4 5 1 9 9 9 9 0 16 5 16 11 0 5 4 8 9 4 6 -3 14 3 20 12 6
10 11 14 11 8 0 -7 3 -7 8 0 11 16 70 55 82 55 6 0 13 7 16 15 4 8 9 13 13 11
4 -3 23 8 42 25 19 16 39 29 45 29 7 0 15 7 18 16 3 8 10 13 15 10 5 -4 11 -3
13 1 5 13 132 93 146 93 4 0 17 -8 28 -18 30 -26 82 -62 91 -62 4 0 24 -14 43
-30 19 -16 41 -30 48 -30 6 0 12 -5 12 -11 0 -5 4 -8 9 -5 5 3 11 -1 15 -9 3
-8 12 -15 21 -15 8 0 15 -3 15 -7 0 -8 56 -43 67 -42 3 1 10 -6 15 -15 5 -9
15 -16 23 -16 7 0 15 -3 17 -7 2 -5 14 -15 28 -24 l25 -16 0 -295 0 -294 29
-27 c15 -14 37 -29 47 -32 11 -4 19 -11 19 -16 0 -5 5 -9 10 -9 6 0 41 -20 78
-45 37 -25 75 -51 86 -58 10 -6 24 -17 31 -24 7 -7 15 -9 19 -6 3 4 6 2 6 -4
0 -6 16 -18 35 -27 19 -9 35 -21 35 -25 0 -5 14 -14 30 -21 17 -7 30 -15 30
-19 0 -3 13 -12 28 -19 16 -6 38 -21 49 -31 12 -11 24 -17 27 -14 3 4 6 2 6
-4 0 -6 16 -18 35 -27 19 -9 35 -21 35 -25 0 -5 14 -14 30 -21 17 -7 30 -16
30 -20 0 -12 39 -19 46 -9 3 5 10 7 15 4 5 -4 9 -1 9 5 0 6 5 8 10 5 6 -3 10
-2 10 3 0 5 30 29 68 53 37 24 69 46 72 49 13 14 90 59 90 53 0 -4 6 0 13 9
17 21 239 170 231 155 -3 -7 3 -3 13 9 10 11 43 36 73 54 30 19 57 37 60 40 3
3 16 13 30 21 l25 16 1 289 c2 337 2 327 12 320 5 -3 21 6 36 19 16 14 37 27
47 30 11 4 17 11 14 16 -4 5 1 9 10 9 9 0 25 9 37 20 12 10 24 17 28 15 5 -3
10 2 14 10 3 8 11 15 19 15 7 0 24 11 37 25 13 14 27 25 32 25 5 0 52 29 104
65 52 36 97 65 100 65 3 0 14 9 26 20 12 11 28 20 35 20 7 0 13 5 13 11 0 5 4
8 9 5 4 -3 13 6 19 19 7 16 8 26 1 30 -5 4 -6 12 -2 18 11 18 9 107 -2 107 -6
0 -5 3 1 8 12 8 12 60 1 79 -4 6 -3 14 1 17 11 6 10 56 -1 73 -4 6 -3 14 2 17
10 7 9 25 -2 43 -4 6 -4 14 1 17 10 6 9 56 -1 73 -4 6 -3 14 1 17 11 6 10 56
-1 73 -5 7 10 24 40 44 27 18 50 36 51 41 2 4 10 8 18 8 8 0 14 5 14 10 0 6 5
10 10 10 16 0 120 71 120 82 0 5 4 7 9 3 5 -3 15 1 23 8 18 17 61 44 72 45 5
0 12 5 15 10 8 13 159 112 170 112 5 0 12 7 15 16 4 9 9 14 13 10 4 -3 14 6
24 21 13 20 15 31 7 40 -7 8 -7 13 0 13 12 0 11 32 -2 42 -6 4 -5 12 3 21 8
11 9 17 1 22 -6 4 -7 12 -3 18 5 7 7 26 6 42 -3 29 -3 40 -3 68 1 6 -1 29 -2
50 -2 21 0 41 5 44 4 3 3 11 -3 18 -8 10 -8 15 0 20 8 5 8 10 0 20 -8 10 -8
15 0 20 8 5 8 10 0 20 -6 7 -7 16 -2 19 4 2 7 20 5 38 -2 18 -4 39 -3 46 0 6
0 18 0 25 1 6 -1 29 -2 50 -2 21 0 41 4 43 5 3 3 14 -2 25 -8 14 -7 19 2 19
20 0 -65 69 -85 70 -10 0 -15 5 -12 10 3 6 -1 10 -9 10 -9 0 -16 5 -16 10 0 6
-7 10 -15 10 -8 0 -22 9 -32 19 -10 11 -24 21 -32 23 -8 2 -22 10 -32 18 -41
35 -49 40 -49 33 0 -4 -6 -1 -13 7 -7 8 -24 21 -39 29 -15 8 -37 23 -48 33
-11 10 -20 15 -20 11 0 -4 -6 -1 -13 8 -7 8 -31 26 -54 39 -24 13 -43 27 -43
32 0 4 -6 8 -13 8 -7 0 -23 9 -35 20 -12 12 -22 17 -22 13 0 -4 -4 -2 -9 6 -5
7 -8 38 -6 67 1 30 -2 57 -7 60 -5 3 -5 11 0 17 10 14 10 27 -1 44 -4 6 -4 14
1 17 10 6 9 56 -1 73 -4 6 -3 14 1 17 11 6 10 56 -1 73 -4 6 -3 14 2 17 5 3 7
22 5 41 -3 32 1 38 39 63 23 15 44 30 45 35 2 4 10 7 18 7 8 0 17 7 20 15 4 8
10 12 15 9 5 -3 9 -1 9 5 0 6 11 13 25 17 14 3 25 9 25 14 0 4 16 15 35 26 19
10 35 22 35 26 0 5 7 8 15 8 8 0 15 5 15 10 0 6 7 10 15 10 8 0 15 5 15 10 0
6 4 10 10 10 8 0 97 57 110 70 3 3 30 21 60 40 30 19 59 40 63 47 5 8 13 10
19 7 7 -5 9 2 6 20 -3 14 -1 29 4 32 5 3 4 11 -2 19 -6 7 -7 16 -2 19 4 2 7
20 5 38 -2 18 -4 39 -3 46 0 6 0 18 0 25 1 6 -1 29 -2 50 -2 21 0 41 5 44 4 3
3 11 -3 18 -8 10 -8 15 0 20 8 5 8 10 0 20 -8 10 -8 15 0 20 8 5 8 10 0 20 -6
7 -7 16 -2 19 4 2 7 20 5 38 -2 18 -4 39 -3 46 1 28 0 39 -2 72 -1 20 1 41 5
47 4 6 3 15 -3 18 -8 5 -8 11 0 20 8 10 8 15 0 20 -8 5 -8 10 0 20 7 9 8 15 1
19 -6 4 -8 13 -5 20 3 8 -9 24 -28 37 -18 13 -34 27 -36 31 -2 4 -8 8 -14 8
-6 0 -26 11 -45 26 -18 14 -33 21 -33 17 0 -4 -4 -3 -8 3 -8 12 -93 71 -105
72 -4 1 -14 7 -21 15 -7 7 -44 33 -82 57 -38 25 -72 49 -76 55 -5 6 -8 6 -8 0
0 -6 -3 -6 -8 1 -4 6 -35 30 -70 53 -42 28 -62 48 -58 57 3 8 0 14 -7 14 -8 0
-9 3 -1 8 12 8 12 60 1 79 -4 6 -3 14 1 17 11 6 10 76 -1 93 -4 6 -4 14 1 17
4 2 7 50 6 106 l-2 102 42 29 c22 16 46 33 53 39 7 5 24 15 38 22 14 6 25 16
25 21 0 6 3 8 6 4 4 -3 12 -1 20 6 32 29 44 37 44 32 0 -4 6 0 14 7 7 7 22 19
32 25 11 7 50 33 87 58 38 25 71 45 73 45 3 0 12 6 19 13 31 27 44 37 50 37 4
0 21 11 39 25 18 14 35 23 37 20 3 -2 10 5 17 15 7 11 8 20 3 20 -10 0 -9 19
2 37 4 6 3 14 -3 18 -6 4 -7 12 -3 18 10 17 10 80 -1 95 -4 6 -5 12 0 12 5 0
9 11 9 25 0 14 -3 25 -7 25 -4 0 -4 10 1 23 5 12 5 32 0 45 -5 12 -5 22 0 22
9 0 8 31 -3 48 -4 6 -3 12 1 12 9 0 8 74 -2 90 -3 6 -2 10 3 10 10 0 9 30 -2
48 -4 6 -3 12 3 12 7 0 7 8 1 25 -6 16 -6 26 1 31 7 4 6 10 -1 19 -6 7 -7 15
-3 18 10 6 9 59 -1 75 -4 7 -4 12 0 12 4 0 -1 6 -11 14 -11 8 -23 12 -27 10
-5 -3 -8 -1 -8 5 0 5 -18 20 -40 32 -22 13 -40 27 -40 33 0 5 -3 7 -6 3 -3 -3
-15 2 -25 12 -11 10 -32 24 -47 32 -15 8 -36 22 -46 32 -11 9 -25 17 -32 17
-6 0 -15 7 -18 16 -4 9 -9 14 -12 11 -4 -3 -12 -1 -20 6 -34 30 -44 37 -44 30
0 -4 -4 -3 -8 2 -11 16 -126 90 -134 87 -5 -1 -8 2 -8 8 0 5 -13 16 -29 25
-16 8 -35 20 -43 27 -20 20 -96 68 -107 68 -5 0 -12 6 -15 13 -5 10 -7 10 -12
0 -3 -7 -10 -13 -15 -13 -5 0 -32 -16 -59 -35 -27 -19 -54 -35 -59 -35 -5 0
-11 -3 -13 -7 -1 -5 -64 -48 -138 -97 -74 -49 -136 -93 -138 -98 -2 -4 -8 -8
-13 -8 -6 0 -43 -22 -83 -49 -60 -41 -75 -47 -92 -38 -10 6 -22 15 -26 21 -5
7 -8 7 -8 1 0 -6 -3 -6 -8 1 -4 5 -41 32 -82 59 -41 28 -77 52 -80 55 -3 3
-17 11 -32 19 -16 8 -28 18 -28 23 0 5 -4 6 -10 3 -5 -3 -10 -2 -10 2 0 5 -22
22 -50 38 -27 16 -50 33 -50 37 0 4 -4 8 -10 8 -11 0 -164 102 -168 112 -5 10
-29 10 -34 0 -1 -4 -86 -63 -188 -130 -102 -67 -189 -125 -195 -130 -23 -18
-195 -132 -200 -132 -3 0 -15 -9 -27 -20 -12 -11 -28 -20 -35 -20 -7 0 -13 -4
-13 -8 0 -4 -13 -15 -28 -24 l-28 -17 1 -300 c0 -237 -2 -301 -12 -301 -7 0
-13 -4 -13 -10 0 -5 -7 -10 -15 -10 -8 0 -15 -3 -15 -7 0 -5 -28 -26 -63 -48
-34 -22 -63 -43 -65 -47 -2 -5 -8 -8 -14 -8 -6 0 -26 -11 -44 -25 -18 -14 -37
-25 -43 -25 -6 0 -11 -3 -11 -7 0 -5 -28 -26 -63 -48 -34 -22 -64 -42 -67 -45
-14 -17 -44 -18 -73 -4 -18 9 -34 20 -37 23 -10 12 -69 51 -78 51 -5 0 -17 9
-27 20 -10 11 -23 20 -29 20 -6 0 -24 11 -40 25 -16 13 -37 27 -47 30 -11 4
-19 11 -19 16 0 5 -6 9 -14 9 -8 0 -16 3 -18 8 -5 10 -97 72 -108 72 -13 0
-12 -21 -14 313 l-2 297 -24 17 c-14 10 -27 16 -29 14 -2 -1 -7 1 -10 6 -12
16 -81 64 -81 56 0 -4 -4 -3 -8 4 -4 6 -59 45 -122 87 -63 42 -122 80 -130 86
-8 6 -62 42 -120 80 -58 38 -109 73 -115 77 -5 4 -30 21 -54 37 -42 27 -45 28
-58 10 -7 -10 -13 -14 -13 -8 0 5 -4 4 -8 -1 -4 -6 -41 -33 -82 -60 -41 -26
-78 -52 -81 -57 -3 -6 -10 -10 -15 -11 -14 -1 -158 -97 -166 -110 -4 -7 -8 -8
-8 -4 0 5 -18 -6 -40 -23 -22 -17 -40 -28 -40 -23 0 4 -4 3 -8 -3 -4 -6 -32
-27 -62 -47 -39 -27 -56 -33 -62 -24 -4 6 -8 9 -8 4 0 -4 -43 22 -95 58 -53
36 -100 65 -104 65 -5 0 -11 3 -13 8 -5 10 -97 72 -108 72 -6 0 -10 4 -10 8 0
5 -19 19 -42 32 -24 13 -52 32 -62 42 -11 10 -24 18 -29 18 -5 0 -26 13 -46
29 -57 45 -77 53 -93 38z m66 -339 c10 -8 120 -82 155 -103 44 -27 137 -90
141 -96 3 -3 19 -13 35 -22 17 -9 43 -27 59 -40 l29 -24 0 -204 c-1 -112 -2
-214 -2 -226 -1 -16 -33 -43 -133 -110 -73 -48 -137 -90 -143 -92 -5 -2 -12
-7 -15 -10 -8 -10 -69 -51 -75 -51 -3 0 -15 -9 -27 -20 -12 -11 -28 -20 -35
-20 -7 0 -13 -4 -13 -10 0 -14 -36 -12 -52 3 -24 22 -108 77 -118 77 -6 0 -10
5 -10 11 0 5 -4 8 -9 5 -5 -3 -11 1 -15 9 -3 8 -12 15 -21 15 -8 0 -15 5 -15
10 0 6 -7 10 -15 10 -9 0 -18 7 -21 15 -4 8 -14 15 -23 15 -9 0 -23 9 -31 19
-7 11 -17 18 -22 15 -4 -3 -8 0 -8 5 0 6 -7 11 -15 11 -8 0 -15 5 -15 10 0 6
-7 10 -15 10 -8 0 -15 5 -15 10 0 6 -7 10 -15 10 -8 0 -15 5 -15 10 0 6 -6 10
-14 10 -8 0 -16 6 -19 13 -2 6 -4 112 -3 235 l1 222 75 50 c93 61 94 62 154
104 27 19 53 33 58 30 4 -3 8 -1 8 4 0 6 24 25 53 43 28 18 54 36 57 39 3 3
16 13 30 22 25 16 44 12 74 -14z m1241 -31 c6 -4 57 -39 115 -77 58 -38 111
-74 118 -80 6 -6 12 -8 12 -5 0 4 7 0 15 -8 8 -8 31 -25 52 -38 64 -38 63 -32
63 -274 l0 -220 -52 -35 c-29 -19 -57 -37 -63 -39 -5 -2 -15 -9 -22 -15 -24
-21 -38 -31 -65 -45 -16 -8 -28 -18 -28 -23 0 -4 -5 -8 -11 -8 -6 0 -25 -11
-43 -25 -18 -14 -38 -25 -44 -25 -7 0 -12 -3 -12 -7 0 -5 -27 -25 -60 -46 -60
-39 -83 -42 -113 -14 -23 22 -107 77 -117 77 -6 0 -10 5 -10 11 0 5 -4 8 -9 5
-5 -4 -11 -3 -13 1 -4 11 -78 65 -78 58 0 -3 -12 6 -27 20 -15 14 -33 25 -40
25 -6 0 -13 4 -15 8 -1 4 -20 18 -40 31 -21 12 -38 27 -38 32 0 4 -7 6 -15 3
-16 -7 -18 28 -15 321 1 112 4 143 17 157 9 10 19 15 23 13 5 -3 10 -1 12 3 1
4 30 26 63 47 33 22 63 44 67 50 4 5 8 7 8 3 0 -5 9 1 20 12 11 11 27 20 36
20 8 0 12 5 9 10 -3 6 3 10 15 10 12 0 18 5 15 10 -3 6 0 10 8 10 8 0 27 11
42 24 16 14 32 23 36 20 4 -2 9 0 11 4 1 5 20 20 42 34 l39 27 41 -27 c22 -15
46 -31 51 -35z m2359 23 c4 0 16 -9 28 -20 11 -10 36 -26 54 -35 19 -9 34 -20
34 -25 0 -6 4 -10 10 -10 5 0 32 -16 59 -35 26 -19 53 -35 59 -35 6 0 12 -4
14 -8 2 -4 36 -29 76 -56 l72 -48 1 -91 c1 -51 0 -96 -1 -102 -1 -5 -1 -64 -1
-130 1 -66 -2 -125 -6 -131 -12 -15 -100 -74 -112 -74 -6 0 -11 -5 -11 -10 0
-6 -8 -14 -18 -18 -25 -10 -196 -125 -200 -134 -2 -5 -8 -8 -12 -8 -5 0 -29
-14 -54 -30 -33 -23 -52 -29 -70 -24 -14 3 -23 10 -20 15 3 5 0 9 -7 9 -7 0
-27 11 -44 25 -18 13 -35 21 -39 18 -3 -4 -6 -2 -6 4 0 10 -53 47 -73 51 -4 1
-19 13 -34 26 -15 14 -30 23 -35 20 -4 -3 -8 -1 -8 4 0 11 -71 57 -82 54 -5
-1 -8 2 -8 7 0 5 -20 21 -45 35 l-45 27 0 229 0 229 103 68 c56 37 107 71 112
75 6 5 64 44 130 87 l120 79 26 -19 c15 -10 30 -19 33 -19z m1276 -53 c63 -42
122 -82 130 -89 8 -8 41 -29 73 -48 31 -19 57 -38 57 -43 0 -4 4 -6 9 -3 5 3
11 -1 15 -9 3 -8 12 -15 20 -15 7 0 16 -6 18 -12 4 -11 3 -439 -1 -460 0 -5
-7 -8 -15 -8 -7 0 -25 -11 -40 -25 -14 -13 -28 -23 -30 -22 -3 1 -17 -9 -33
-23 -15 -13 -30 -24 -33 -23 -8 1 -205 -130 -208 -139 -2 -4 -10 -8 -18 -8 -8
0 -14 -5 -14 -12 0 -6 -3 -9 -6 -5 -3 3 -16 -3 -27 -14 -22 -20 -68 -19 -75 2
-2 5 -10 9 -17 9 -7 0 -15 3 -17 8 -5 10 -66 52 -77 52 -5 0 -11 4 -13 8 -4
10 -96 72 -108 72 -4 0 -10 3 -12 8 -5 11 -66 52 -78 52 -5 0 -10 5 -10 10 0
6 -6 10 -14 10 -8 0 -16 4 -18 8 -1 4 -17 17 -33 29 l-30 21 1 226 c0 124 2
228 5 230 2 2 24 16 48 31 25 15 49 32 55 37 14 11 188 127 226 150 16 9 50
32 77 51 32 23 53 32 63 27 8 -5 67 -42 130 -83z m-5449 -949 c35 -23 66 -46
67 -50 2 -4 9 -8 16 -8 7 0 22 -9 34 -20 12 -12 22 -17 22 -13 0 4 4 3 8 -3 4
-6 54 -42 112 -80 58 -37 112 -75 121 -84 13 -13 15 -47 14 -236 -1 -232 -2
-239 -47 -257 -10 -3 -18 -11 -18 -16 0 -5 -11 -12 -25 -15 -14 -4 -25 -11
-25 -17 0 -6 -5 -7 -10 -4 -6 3 -13 -1 -16 -9 -3 -9 -12 -16 -20 -16 -7 0 -19
-8 -26 -17 -7 -10 -20 -19 -28 -21 -8 -2 -16 -8 -18 -13 -2 -5 -8 -9 -13 -9
-6 0 -34 -18 -63 -39 -30 -22 -56 -37 -60 -34 -3 3 -8 -2 -12 -11 -3 -9 -12
-16 -20 -16 -8 0 -14 -5 -14 -11 0 -5 -4 -8 -9 -5 -5 3 -11 0 -14 -8 -5 -12
-21 -14 -44 -7 -2 1 -6 1 -9 0 -3 0 -14 9 -23 20 -10 12 -23 21 -29 21 -6 0
-17 6 -24 13 -7 6 -47 34 -88 62 -41 27 -76 53 -78 57 -2 4 -9 8 -17 8 -7 0
-18 7 -25 15 -7 8 -16 12 -21 9 -5 -3 -9 -1 -9 3 0 5 -27 27 -60 48 -33 21
-60 44 -61 49 -5 52 -2 432 3 446 4 10 21 26 39 36 18 9 41 25 52 35 12 10 25
19 29 19 5 0 18 9 30 20 12 10 25 17 30 14 4 -3 8 -1 8 4 0 9 59 49 70 48 3
-1 12 5 20 12 49 42 76 62 83 62 4 0 13 5 20 10 42 35 63 49 73 50 7 0 40 -19
75 -42z m4753 17 c18 -14 38 -25 44 -25 7 0 12 -5 12 -11 0 -5 4 -8 9 -5 5 4
11 3 13 -1 5 -12 76 -63 87 -63 5 0 14 -6 18 -14 4 -8 15 -16 23 -18 8 -2 26
-13 40 -25 13 -13 30 -23 37 -23 7 0 13 -5 13 -12 0 -6 3 -8 6 -5 4 4 15 -3
25 -15 11 -11 19 -17 19 -12 0 5 6 2 13 -6 7 -8 24 -21 38 -28 l26 -14 0 -233
-1 -234 -25 -13 c-14 -7 -28 -15 -31 -18 -3 -3 -43 -30 -90 -60 -47 -30 -89
-60 -93 -67 -4 -7 -13 -13 -19 -13 -6 0 -26 -11 -44 -25 -18 -14 -38 -25 -44
-25 -6 0 -13 -7 -16 -15 -4 -8 -11 -15 -18 -15 -6 0 -28 -14 -49 -31 -20 -17
-37 -26 -37 -21 0 5 -13 15 -30 22 -16 7 -30 16 -30 20 0 4 -13 13 -30 20 -16
7 -30 16 -30 21 0 5 -5 9 -10 9 -12 0 -73 41 -78 53 -2 4 -10 7 -18 7 -8 0
-14 5 -14 12 0 6 -3 9 -6 5 -3 -3 -11 -1 -18 4 -47 39 -61 49 -77 54 -11 4
-19 10 -19 14 0 7 -50 35 -57 32 -2 -1 -13 9 -24 20 -20 20 -21 30 -21 248 1
202 2 227 18 236 9 6 30 21 45 33 16 13 29 20 29 15 0 -4 5 0 11 10 6 9 14 15
20 12 5 -4 9 -2 9 4 0 6 16 18 36 27 20 9 38 23 41 31 3 7 9 10 14 7 5 -3 9 0
9 5 0 6 5 11 12 11 6 0 27 12 47 27 20 15 36 26 36 23 0 -3 11 5 24 17 13 12
39 29 57 38 19 9 34 20 34 25 0 18 31 10 64 -15z m-4224 -978 c0 7 22 -3 49
-22 26 -19 53 -35 60 -35 6 0 11 -4 11 -8 0 -5 34 -30 75 -56 41 -26 82 -54
90 -62 8 -8 16 -14 17 -13 2 1 29 -16 62 -37 32 -21 67 -43 77 -49 22 -12 21
11 21 -254 l1 -214 -24 -19 c-13 -10 -28 -21 -34 -26 -30 -23 -65 -41 -65 -35
0 4 -7 -3 -16 -15 -8 -12 -22 -22 -30 -22 -8 0 -14 -4 -14 -10 0 -5 -7 -10
-15 -10 -8 0 -15 -3 -15 -8 0 -4 -20 -18 -45 -32 -25 -14 -45 -28 -45 -32 0
-5 -7 -8 -15 -8 -8 0 -15 -3 -15 -7 0 -8 -59 -46 -73 -47 -4 -1 -11 -6 -15
-12 -15 -23 -50 -35 -64 -21 -7 6 -56 40 -108 74 -52 35 -99 66 -105 71 -5 4
-46 31 -90 60 -44 28 -86 56 -92 62 -7 6 -16 11 -20 12 -26 5 -29 34 -29 250
1 124 3 228 6 230 3 2 12 8 21 13 57 35 119 81 119 88 0 4 4 6 9 3 5 -3 24 8
42 24 19 16 39 30 44 30 6 0 33 17 60 38 28 20 63 44 78 52 16 8 38 23 50 35
14 13 25 17 29 10 5 -6 8 -5 8 2z m4854 -37 c4 0 16 -8 27 -18 10 -11 32 -25
47 -33 15 -8 32 -18 38 -24 6 -5 71 -50 145 -99 l134 -89 0 -227 0 -228 -97
-63 c-54 -35 -98 -66 -98 -70 0 -4 -15 -14 -32 -23 -49 -25 -83 -46 -113 -73
-7 -7 -18 -13 -24 -13 -6 0 -11 -5 -11 -11 0 -5 -4 -7 -10 -4 -5 3 -10 1 -10
-4 0 -6 -7 -11 -15 -11 -8 0 -15 -3 -15 -8 0 -4 -9 -13 -19 -19 -17 -11 -27
-7 -70 22 -28 19 -55 35 -60 35 -5 0 -11 3 -13 8 -1 4 -30 25 -63 47 -33 22
-62 43 -65 46 -3 3 -12 8 -20 12 -18 8 -50 28 -66 42 -40 34 -53 43 -56 40 -2
-2 -19 9 -37 25 l-35 28 -1 208 c-1 208 5 264 30 264 7 0 18 7 25 15 7 8 16
13 20 10 4 -3 10 2 14 10 3 8 12 15 21 15 8 0 15 3 15 8 0 6 45 36 63 40 7 2
20 12 65 52 12 11 25 20 30 20 4 0 15 7 25 15 9 8 17 12 17 10 0 -3 6 -1 13 5
6 6 39 29 71 50 l59 39 32 -25 c18 -13 35 -24 39 -24z m-2418 15 c18 -14 37
-25 43 -25 6 0 11 -5 11 -12 0 -6 3 -9 6 -5 3 3 17 -4 31 -16 13 -12 27 -20
30 -19 3 2 9 0 12 -5 9 -14 141 -103 151 -103 6 0 10 -5 10 -11 0 -5 5 -7 10
-4 6 3 10 3 10 -2 0 -4 24 -23 53 -42 l52 -33 -1 -227 c-2 -259 -1 -244 -14
-236 -6 3 -13 -1 -16 -9 -3 -9 -12 -16 -20 -16 -8 0 -14 -4 -14 -10 0 -5 -5
-10 -10 -10 -6 0 -35 -18 -65 -40 -30 -22 -59 -40 -65 -40 -5 0 -10 -4 -10
-10 0 -5 -6 -10 -14 -10 -8 0 -16 -3 -18 -7 -1 -5 -23 -21 -48 -38 -25 -16
-48 -34 -52 -40 -5 -7 -8 -7 -8 0 0 6 -3 6 -8 -1 -4 -5 -24 -20 -44 -33 -21
-12 -38 -27 -38 -32 0 -14 -21 -7 -57 19 -17 12 -36 22 -42 22 -6 0 -11 4 -11
8 0 5 -12 15 -27 23 -16 8 -30 16 -33 19 -3 3 -12 10 -22 15 -9 6 -50 34 -92
63 -41 28 -80 52 -86 52 -5 0 -10 3 -10 8 0 4 -24 22 -53 41 l-53 34 2 226 c1
124 3 228 4 231 1 3 2 8 1 13 0 4 2 6 6 6 18 -3 31 2 51 21 12 12 22 18 22 15
0 -4 7 0 15 7 32 29 45 38 53 38 4 0 18 9 30 20 12 12 22 17 22 13 0 -4 4 -3
8 2 4 6 41 33 82 60 41 27 77 51 80 55 3 3 17 11 33 19 15 8 27 18 27 23 0 17
44 7 76 -17z m594 -991 c8 -7 53 -38 100 -68 47 -30 96 -64 109 -75 13 -12 28
-21 32 -21 5 0 17 -7 26 -15 10 -8 22 -16 28 -18 5 -1 20 -12 34 -24 13 -13
30 -23 37 -23 8 0 14 -4 14 -10 0 -5 7 -10 15 -10 23 0 39 -87 22 -122 -4 -10
-4 -18 0 -18 10 0 8 -134 -1 -149 -4 -6 -4 -11 1 -11 9 0 8 -133 -1 -148 -3
-6 -1 -12 5 -14 7 -2 -11 -19 -40 -37 -28 -18 -51 -37 -51 -43 0 -5 -4 -7 -8
-4 -5 3 -19 -4 -30 -15 -12 -11 -22 -17 -22 -13 0 4 -10 -1 -22 -12 -29 -26
-76 -55 -82 -52 -3 2 -11 -4 -18 -13 -7 -9 -42 -35 -78 -57 -36 -23 -71 -47
-79 -54 -23 -20 -46 -19 -68 2 -12 10 -24 16 -27 13 -3 -4 -6 -2 -6 3 0 5 -16
18 -35 28 -19 11 -35 23 -35 28 0 4 -6 8 -13 8 -7 0 -23 9 -35 20 -12 11 -28
20 -36 20 -8 0 -16 4 -18 10 -1 5 -41 34 -88 64 -47 31 -94 63 -105 71 -10 8
-22 15 -26 15 -4 0 -7 106 -7 235 0 194 3 235 14 235 8 0 14 5 14 11 0 5 5 7
10 4 6 -3 13 1 16 9 3 9 10 13 15 10 5 -3 9 0 9 6 0 6 11 15 25 20 14 5 25 14
25 20 0 5 4 10 9 10 16 0 111 62 111 72 0 5 5 6 10 3 6 -3 10 -1 10 4 0 6 7
11 15 11 9 0 18 7 21 15 4 8 10 12 15 9 5 -3 12 2 15 10 3 9 12 16 20 16 7 0
22 10 34 22 11 12 20 18 20 14 0 -4 12 2 26 13 25 20 44 19 74 -5z m1220 -18
c25 -16 47 -33 48 -38 2 -4 9 -8 16 -8 7 0 22 -9 34 -20 12 -12 22 -17 22 -13
0 4 4 4 8 -2 12 -16 148 -105 161 -105 7 0 9 -4 6 -10 -3 -5 0 -10 8 -10 8 0
20 -7 27 -15 7 -9 15 -14 17 -11 2 2 15 -6 27 -18 23 -21 23 -24 22 -244 l-1
-224 -55 -38 c-30 -22 -61 -44 -67 -50 -7 -6 -13 -8 -13 -5 0 3 -10 -3 -22
-14 -11 -11 -25 -18 -30 -15 -4 3 -8 1 -8 -4 0 -5 -24 -24 -52 -42 -29 -19
-56 -39 -60 -44 -4 -6 -8 -7 -8 -3 0 7 -11 0 -45 -31 -8 -7 -15 -11 -15 -7 0
3 -10 -3 -22 -14 -11 -11 -24 -18 -28 -16 -5 3 -10 -2 -14 -10 -8 -22 -22 -19
-70 15 -24 16 -46 26 -50 23 -3 -4 -6 -1 -6 5 0 6 -18 21 -40 33 -22 13 -40
27 -40 31 0 5 -4 6 -10 3 -5 -3 -10 -2 -10 3 0 5 -12 15 -27 23 -16 8 -37 22
-47 32 -11 9 -26 17 -33 17 -7 0 -13 4 -13 8 0 5 -12 15 -27 23 -16 8 -37 22
-47 31 -11 10 -31 23 -45 29 l-26 12 2 230 c2 175 6 233 15 239 7 4 29 18 48
31 20 12 53 33 73 45 20 13 37 28 37 34 0 5 5 6 10 3 6 -3 13 1 16 9 3 9 9 14
14 11 4 -2 16 5 28 15 12 11 26 20 32 20 6 0 13 7 16 15 4 8 10 13 14 10 4 -2
19 6 34 20 14 13 26 21 26 18 0 -3 9 2 19 11 29 27 85 54 96 48 6 -3 30 -19
55 -36z m-3034 -966 c8 0 14 -4 14 -10 0 -5 5 -10 11 -10 9 0 97 -55 109 -69
3 -3 17 -12 32 -20 15 -8 37 -22 47 -33 11 -10 23 -18 26 -18 7 0 116 -72 133
-87 7 -7 17 -13 21 -13 4 0 17 -9 29 -20 21 -20 22 -27 22 -242 l0 -221 -25
-23 c-14 -13 -25 -20 -25 -17 0 4 -11 -4 -25 -17 -14 -13 -25 -20 -25 -16 0 4
-9 -2 -20 -12 -11 -10 -33 -25 -48 -33 -28 -14 -53 -33 -80 -59 -9 -8 -17 -14
-19 -13 -5 4 -63 -32 -63 -39 0 -5 -7 -8 -15 -8 -9 0 -18 -7 -21 -15 -4 -8
-10 -12 -15 -9 -5 3 -12 -2 -15 -10 -3 -9 -10 -14 -14 -11 -4 2 -18 -4 -30
-15 -15 -13 -27 -17 -34 -11 -6 5 -14 9 -18 8 -3 -1 -18 8 -32 20 -15 13 -30
23 -35 23 -5 0 -11 4 -13 9 -1 5 -10 11 -18 13 -8 2 -21 11 -28 21 -7 9 -20
17 -28 17 -8 0 -14 5 -14 11 0 5 -4 8 -9 4 -5 -3 -16 4 -24 15 -7 11 -17 17
-20 13 -4 -3 -7 -1 -7 5 0 7 -6 12 -13 12 -7 0 -22 8 -33 18 -10 9 -31 23 -46
31 -16 8 -28 18 -28 23 0 4 -6 8 -13 8 -7 0 -23 9 -35 20 -12 12 -22 17 -22
13 0 -4 -5 0 -11 10 -8 14 -13 202 -10 424 1 39 4 43 58 80 32 21 66 41 75 45
10 4 18 12 18 18 0 5 7 10 15 10 14 0 23 6 73 50 12 11 25 20 30 20 14 1 162
103 162 112 0 5 4 7 9 3 5 -3 13 0 17 7 6 9 9 9 12 0 2 -7 10 -12 18 -12z
m3632 -32 c2 -5 10 -8 18 -8 8 0 14 -4 14 -10 0 -5 7 -10 15 -10 9 0 18 -7 21
-15 4 -8 10 -13 14 -10 4 2 19 -6 33 -19 14 -13 28 -21 31 -18 3 3 6 0 6 -6 0
-7 7 -12 15 -12 8 0 15 -4 15 -10 0 -5 5 -10 10 -10 6 0 16 -5 23 -10 7 -6 35
-25 62 -43 28 -17 59 -40 69 -49 11 -10 26 -18 33 -18 7 0 14 -3 14 -7 6 -35
3 -470 -3 -467 -5 3 -8 0 -8 -5 0 -6 -6 -11 -14 -11 -7 0 -25 -11 -40 -25 -15
-14 -29 -25 -32 -25 -3 0 -28 -16 -57 -35 -28 -19 -58 -35 -65 -35 -7 0 -11
-4 -8 -9 6 -9 -22 -26 -36 -23 -5 1 -8 -3 -8 -8 0 -6 -11 -15 -25 -20 -14 -5
-25 -14 -25 -20 0 -5 -5 -10 -11 -10 -5 0 -37 -18 -69 -40 l-60 -41 -92 62
c-51 34 -96 67 -100 73 -4 6 -8 7 -8 2 0 -8 -70 40 -81 57 -3 5 -9 7 -12 5 -3
-1 -17 7 -31 19 -14 13 -26 20 -26 17 0 -3 -18 9 -40 26 -22 17 -40 28 -40 24
0 -4 -8 2 -17 13 -16 18 -18 45 -17 243 l0 223 25 18 c13 11 29 23 35 28 6 5
25 16 42 25 18 9 32 21 32 27 0 6 5 7 10 4 6 -3 10 -2 10 3 0 5 14 15 30 22
17 7 30 16 30 21 0 5 7 9 15 9 8 0 15 4 15 9 0 5 14 14 30 21 17 7 30 16 30
21 0 5 16 15 35 23 19 8 35 20 35 27 0 7 3 10 6 6 3 -3 11 -1 18 4 6 6 25 18
41 28 29 17 31 17 60 -3 17 -12 32 -24 33 -28z m-2428 27 c7 -8 19 -15 26 -15
8 0 14 -4 14 -9 0 -5 8 -12 19 -16 10 -3 31 -17 47 -30 16 -14 35 -25 42 -25
6 0 12 -4 12 -10 0 -5 7 -10 15 -10 8 0 15 -4 15 -9 0 -4 20 -19 45 -32 25
-13 45 -27 45 -31 0 -5 7 -8 15 -8 8 0 15 -3 15 -7 0 -5 28 -25 63 -46 l62
-38 0 -229 0 -229 -37 -23 c-21 -13 -38 -26 -38 -30 0 -5 -5 -8 -10 -8 -12 0
-73 -41 -78 -52 -2 -5 -10 -8 -18 -8 -8 0 -14 -5 -14 -11 0 -5 -4 -8 -9 -5 -5
3 -11 -1 -15 -9 -3 -8 -12 -15 -21 -15 -8 0 -15 -5 -15 -11 0 -5 -4 -7 -10 -4
-5 3 -10 2 -10 -3 0 -5 -16 -17 -35 -28 -19 -10 -35 -22 -35 -25 0 -4 -11 -10
-25 -13 -14 -4 -23 -11 -20 -16 3 -6 0 -10 -8 -10 -8 0 -20 -6 -26 -14 -17
-21 -50 -26 -65 -11 -7 7 -29 22 -49 33 -20 10 -34 22 -30 26 3 3 -3 6 -15 6
-11 0 -22 4 -24 8 -4 10 -94 72 -104 72 -4 0 -14 7 -23 16 -9 8 -54 40 -101
71 -47 30 -87 59 -90 64 -5 7 -6 418 -1 454 1 12 62 51 74 47 4 -1 7 2 7 7 0
9 101 76 113 73 4 -1 7 2 7 6 0 9 77 62 89 62 5 0 16 9 26 20 10 11 24 20 32
20 7 0 13 4 13 9 0 5 13 14 30 21 16 7 27 17 23 23 -3 5 -1 7 5 3 6 -3 13 -2
17 4 9 15 41 12 55 -5z m-1810 -985 c0 -5 7 -10 15 -10 8 0 15 -4 15 -10 0 -5
7 -10 15 -10 8 0 15 -4 15 -10 0 -5 7 -10 15 -10 8 0 15 -4 15 -9 0 -5 14 -14
30 -21 17 -7 30 -16 30 -21 0 -5 7 -9 15 -9 8 0 15 -4 15 -10 0 -5 7 -10 15
-10 8 0 15 -4 15 -10 0 -5 6 -10 13 -10 7 0 23 -9 35 -20 12 -11 24 -20 27
-20 8 0 69 -44 73 -52 2 -5 8 -8 14 -8 5 0 25 -12 44 -26 l34 -26 0 -227 0
-227 -82 -54 c-46 -30 -84 -54 -85 -52 -2 1 -12 -6 -22 -15 -35 -32 -51 -44
-51 -38 0 6 -13 -4 -45 -33 -8 -7 -15 -10 -15 -5 0 4 -4 3 -8 -3 -4 -6 -42
-34 -85 -62 l-78 -51 -25 22 c-14 12 -29 22 -32 21 -4 0 -18 10 -32 23 -14 13
-28 23 -32 23 -4 0 -19 11 -34 25 -15 14 -33 25 -40 25 -8 0 -14 3 -14 8 0 4
-20 18 -45 31 -25 13 -45 28 -45 32 0 5 -7 9 -15 9 -8 0 -15 5 -15 10 0 6 -6
10 -13 10 -7 0 -23 9 -35 20 -12 11 -26 20 -32 20 -5 0 -10 5 -10 10 0 6 -7
10 -15 10 -22 0 -24 27 -22 259 l2 214 50 33 c28 19 55 38 62 44 7 5 17 10 23
10 5 0 10 5 10 10 0 6 7 10 15 10 8 0 15 5 15 10 0 6 4 10 10 10 12 0 82 48
92 63 4 7 8 8 8 4 0 -4 15 3 33 17 19 15 37 26 41 26 4 0 28 16 53 35 47 36
63 42 63 25z m3580 -2 c0 -5 4 -7 8 -4 5 3 25 -9 45 -25 20 -17 37 -28 37 -24
0 3 7 0 15 -7 40 -33 69 -53 95 -65 8 -4 17 -9 20 -13 3 -3 57 -41 121 -83
l116 -77 0 -230 c0 -126 -3 -228 -5 -225 -3 2 -16 -8 -30 -23 -14 -15 -27 -25
-28 -22 -1 3 -14 -5 -28 -17 -15 -13 -30 -23 -35 -23 -5 0 -16 -6 -23 -14 -8
-7 -28 -21 -46 -30 -18 -9 -32 -21 -32 -26 0 -6 -7 -10 -14 -10 -8 0 -27 -11
-42 -25 -14 -13 -39 -30 -55 -37 -16 -7 -29 -17 -29 -21 0 -5 -4 -6 -9 -3 -5
3 -11 0 -14 -7 -6 -15 -87 -62 -87 -50 0 5 -16 17 -35 27 -19 11 -35 23 -35
28 0 5 -4 7 -9 4 -5 -4 -11 -2 -13 2 -4 11 -215 152 -227 152 -5 0 -11 4 -13
8 -1 5 -30 26 -62 48 l-60 41 2 222 c0 122 4 226 7 231 3 5 47 37 98 70 51 33
97 63 102 68 6 5 24 17 40 28 17 10 33 23 37 29 5 6 8 6 8 0 0 -6 3 -5 8 1 4
6 37 30 75 54 37 24 67 46 67 50 0 4 7 7 15 7 8 0 15 -4 15 -9z m-4037 -1088
c84 -55 157 -103 162 -107 6 -5 39 -28 75 -52 36 -25 67 -46 69 -48 2 -2 5
-104 5 -227 1 -167 -2 -226 -11 -235 -7 -7 -13 -8 -13 -4 0 4 -4 3 -8 -2 -4
-6 -23 -22 -42 -35 -19 -13 -38 -29 -42 -35 -4 -5 -8 -7 -8 -3 0 5 -31 -14
-69 -41 -38 -27 -72 -47 -75 -44 -3 4 -6 1 -6 -5 0 -6 -8 -13 -17 -16 -10 -3
-30 -17 -45 -31 -16 -14 -28 -23 -28 -19 0 4 -11 -3 -25 -16 -14 -13 -25 -20
-25 -15 0 4 -9 -2 -19 -14 -19 -22 -21 -22 -55 -6 -20 10 -36 21 -36 25 0 4
-8 10 -17 14 -21 6 -51 25 -71 44 -7 7 -18 9 -24 6 -6 -4 -8 -2 -4 4 3 6 -3
13 -14 17 -11 3 -20 11 -20 16 0 5 -6 9 -13 9 -8 0 -25 9 -38 20 -13 11 -28
23 -34 28 -5 4 -17 11 -25 14 -8 3 -35 21 -60 39 -25 18 -51 34 -58 35 -8 2
-17 5 -20 9 -4 4 -8 109 -8 233 -1 189 1 230 14 244 8 10 18 15 22 13 4 -3 11
2 14 11 3 8 10 12 16 9 5 -3 10 -2 10 3 0 10 102 78 113 74 4 -1 7 2 7 7 0 11
152 107 163 103 5 -1 6 1 3 6 -5 9 49 45 59 40 4 -2 11 5 16 15 6 9 15 17 20
17 6 0 79 -45 162 -100z m1057 89 c0 -5 4 -8 9 -5 5 3 12 -1 15 -10 3 -8 10
-12 16 -9 6 3 13 -1 16 -9 3 -9 12 -16 18 -16 7 0 27 -12 45 -27 19 -16 37
-28 41 -28 5 0 20 -10 34 -22 14 -13 26 -20 26 -17 0 3 7 -1 15 -8 32 -29 45
-39 45 -33 0 3 10 -3 22 -15 12 -11 28 -20 35 -20 7 0 13 -4 13 -8 0 -5 18
-17 39 -28 22 -10 37 -22 35 -25 -2 -4 3 -9 11 -13 13 -4 15 -40 15 -231 l0
-225 -122 -81 c-68 -45 -131 -88 -140 -96 -10 -9 -18 -12 -18 -7 0 5 -7 -2
-16 -14 -8 -12 -20 -20 -25 -17 -5 4 -12 -1 -15 -9 -3 -9 -10 -13 -15 -10 -5
3 -9 0 -9 -5 0 -6 -4 -11 -10 -11 -5 0 -30 -15 -56 -32 -32 -23 -48 -29 -51
-20 -3 6 -9 10 -14 6 -5 -3 -9 0 -9 5 0 6 -6 11 -14 11 -8 0 -16 3 -18 8 -5
10 -66 52 -77 52 -5 0 -11 4 -13 8 -5 13 -228 157 -239 154 -6 -1 -8 2 -5 7 4
5 -3 12 -14 16 -11 3 -20 11 -20 16 0 5 -7 9 -15 9 -16 0 -16 -16 -16 279 0
121 3 176 11 181 7 4 11 10 11 14 -1 3 0 5 2 4 2 -2 11 4 20 12 33 30 47 41
47 35 0 -3 6 -1 13 5 10 9 72 51 181 123 10 6 25 18 32 25 8 7 14 11 14 7 0
-3 6 -1 13 5 28 25 113 79 125 79 6 1 12 -4 12 -10z m2413 -11 c18 -12 34 -25
37 -28 3 -3 22 -14 43 -25 20 -11 37 -23 37 -27 0 -3 9 -10 20 -13 11 -3 26
-12 32 -18 16 -15 61 -44 71 -45 4 -1 20 -13 35 -27 15 -14 37 -28 50 -31 12
-4 22 -10 22 -14 0 -5 17 -18 38 -30 21 -12 39 -27 39 -33 1 -21 3 -209 3
-329 l1 -117 -63 -42 c-35 -24 -64 -46 -66 -51 -2 -4 -8 -8 -13 -8 -8 0 -117
-68 -129 -80 -3 -3 -30 -21 -60 -40 -30 -19 -60 -41 -67 -50 -7 -8 -13 -11
-13 -7 0 5 -12 -1 -26 -12 -29 -23 -40 -20 -100 26 -17 12 -36 23 -42 23 -7 0
-12 4 -12 8 0 9 -63 48 -69 43 -2 -1 -8 4 -13 13 -5 9 -16 16 -23 16 -8 0 -15
4 -15 8 0 7 -47 39 -62 41 -4 1 -20 13 -34 26 -15 14 -33 25 -41 25 -7 0 -16
6 -19 14 -3 8 -19 20 -35 26 l-29 12 0 232 0 231 50 33 c27 17 54 32 59 32 5
0 11 7 15 15 3 8 12 15 20 15 8 0 16 3 18 8 2 4 27 22 56 41 28 18 52 37 52
43 0 5 4 7 8 4 4 -2 46 22 92 54 47 33 89 59 93 60 5 0 23 -10 40 -22z"/>
</g>
</svg>
