<?xml version="1.0" standalone="no"?>
<!DOCTYPE svg PUBLIC "-//W3C//DTD SVG 20010904//EN"
 "http://www.w3.org/TR/2001/REC-SVG-20010904/DTD/svg10.dtd">
<svg version="1.0" xmlns="http://www.w3.org/2000/svg"
 width="1080.000000pt" height="1080.000000pt" viewBox="0 0 1080.000000 1080.000000"
 preserveAspectRatio="xMidYMid meet">
<metadata>
Created by potrace 1.14, written by Peter Selinger 2001-2017
</metadata>
<g transform="translate(0.000000,1080.000000) scale(0.100000,-0.100000)"
fill="#000000" stroke="none">
<path d="M2943 9006 l-362 -241 -1 -300 -1 -300 -299 -200 -299 -200 -1 -371
0 -371 298 -199 297 -199 3 -300 3 -300 363 -241 363 -242 299 198 299 197
232 -155 233 -155 0 -227 0 -227 -230 -153 c-136 -90 -235 -150 -244 -147 -8
3 -144 92 -301 197 l-287 192 -364 -243 -364 -242 -2 -301 -3 -301 -297 -197
-298 -197 0 -373 1 -373 299 -199 300 -199 0 -301 1 -301 359 -239 c216 -143
365 -236 374 -233 8 3 143 92 300 196 157 105 288 191 291 191 3 0 134 -86
291 -191 157 -104 292 -193 300 -196 9 -3 158 90 374 233 l359 239 1 295 c0
162 4 300 8 306 10 15 432 296 453 301 10 3 107 -56 243 -146 l226 -151 0
-293 c0 -160 4 -297 8 -303 8 -12 695 -472 718 -481 9 -3 161 92 379 237 l365
243 0 298 0 298 295 198 295 198 2 300 3 300 297 199 298 199 0 371 -1 371
-297 200 -297 200 -3 222 c-2 175 0 224 11 235 8 7 143 99 300 203 l286 190 1
373 0 372 -297 198 -298 198 -3 220 c-2 166 1 224 10 236 7 9 142 102 301 207
l287 191 0 373 -1 372 -363 242 -364 242 -298 -199 c-228 -153 -301 -197 -313
-190 -9 5 -144 94 -301 198 l-284 189 -361 -240 c-198 -132 -363 -245 -367
-251 -4 -6 -8 -143 -8 -303 l0 -293 -225 -150 c-123 -82 -230 -150 -237 -149
-7 0 -114 69 -238 152 l-225 152 -3 300 -3 300 -363 242 -363 241 -298 -198
c-164 -110 -303 -196 -309 -193 -6 4 -137 91 -291 193 -154 102 -284 189 -290
192 -5 3 -173 -103 -372 -236z m605 -238 l222 -148 0 -230 0 -230 -225 -150
c-123 -82 -230 -150 -237 -150 -7 0 -115 68 -240 152 l-228 151 0 227 0 227
233 155 c127 86 237 153 242 150 6 -3 110 -72 233 -154z m1422 -378 l0 -227
-228 -151 c-125 -84 -233 -152 -240 -152 -7 0 -114 68 -237 150 l-225 150 0
230 0 230 231 154 232 154 233 -155 234 -156 0 -227z m2388 3 l2 -230 -228
-151 c-125 -84 -232 -152 -237 -152 -5 0 -112 68 -237 152 l-228 151 0 227 0
227 232 155 232 154 231 -152 230 -152 3 -229z m1202 -2 l0 -226 -226 -150
c-125 -82 -232 -151 -239 -153 -8 -2 -115 65 -239 148 l-226 150 0 230 0 230
231 154 232 154 233 -155 234 -156 0 -226z m-5618 -613 l228 -151 0 -232 0
-232 -228 -151 c-125 -84 -232 -152 -237 -151 -6 0 -111 69 -235 152 l-225
152 -3 227 -2 228 232 155 c128 85 235 155 238 155 2 0 107 -68 232 -152z
m4788 -1 l225 -152 2 -230 3 -230 -226 -150 c-125 -82 -231 -152 -236 -154 -5
-2 -113 66 -239 149 l-229 153 0 231 1 231 227 152 c125 83 232 152 237 152 6
0 111 -69 235 -152z m-4188 -999 l228 -151 -2 -231 -3 -230 -228 -154 -228
-154 -235 156 -234 156 0 228 1 227 227 152 c125 83 231 152 237 152 5 1 112
-67 237 -151z m2393 2 l225 -150 0 -233 -1 -232 -231 -153 -231 -154 -233 158
-234 158 2 226 3 225 225 152 c124 83 231 152 238 152 7 1 114 -67 237 -149z
m2395 -3 l225 -152 3 -225 2 -226 -233 -158 -234 -158 -231 154 -231 153 -1
231 0 231 228 151 c125 84 232 152 237 151 6 0 111 -69 235 -152z m-1792 -999
l222 -148 0 -230 0 -230 -225 -150 c-123 -82 -230 -150 -237 -150 -7 0 -115
68 -240 152 l-228 151 0 227 0 227 233 155 c127 86 237 153 242 150 6 -3 110
-72 233 -154z m1422 -378 l0 -227 -230 -153 c-145 -97 -235 -150 -245 -147 -8
4 -114 73 -235 153 l-220 147 0 229 0 228 231 154 232 154 233 -155 234 -156
0 -227z m-3220 -613 l225 -152 2 -230 3 -230 -226 -150 c-125 -82 -231 -152
-236 -154 -5 -2 -113 66 -239 149 l-229 153 0 231 1 231 227 152 c125 83 232
152 237 152 6 0 111 -69 235 -152z m1192 1 l228 -151 0 -232 0 -232 -228 -151
c-125 -84 -232 -152 -237 -151 -6 0 -111 69 -235 152 l-225 152 -3 218 c-1
120 1 225 6 233 7 13 450 314 462 314 2 0 107 -68 232 -152z m2402 -8 l226
-150 -2 -228 -3 -227 -225 -152 c-124 -83 -229 -152 -235 -152 -5 -1 -112 67
-237 151 l-228 151 0 232 0 232 228 151 c125 84 232 150 239 148 6 -3 113 -73
237 -156z m-4192 -992 l228 -151 0 -228 0 -228 -227 -153 c-126 -84 -232 -153
-238 -153 -5 0 -112 69 -237 153 l-228 152 0 229 0 228 228 151 c125 84 231
152 237 152 5 0 112 -68 237 -152z m3592 -3 l226 -150 0 -227 0 -228 -234
-156 -234 -156 -229 154 -228 153 -3 231 -2 231 227 151 c126 84 233 151 239
150 7 -2 113 -70 238 -153z m-4186 -997 l222 -148 0 -230 0 -230 -225 -150
c-123 -82 -230 -150 -237 -150 -7 0 -115 68 -240 152 l-228 151 0 227 0 227
233 155 c127 86 237 153 242 150 6 -3 110 -72 233 -154z m1422 -378 l0 -227
-228 -151 c-125 -84 -233 -152 -240 -152 -7 0 -114 68 -237 150 l-225 150 0
230 0 230 231 154 232 154 233 -155 234 -156 0 -227z m2388 3 l2 -230 -228
-151 c-125 -84 -232 -152 -237 -152 -5 0 -112 68 -237 152 l-228 151 0 227 0
227 232 155 232 154 231 -152 230 -152 3 -229z"/>
</g>
</svg>
